<?xml version="1.0" encoding="UTF-8" standalone="no"?><!DOCTYPE svg PUBLIC "-//W3C//DTD SVG 1.1//EN" "http://www.w3.org/Graphics/SVG/1.1/DTD/svg11.dtd"><svg width="100%" height="100%" viewBox="0 0 5712 1074" version="1.1" xmlns="http://www.w3.org/2000/svg" xmlns:xlink="http://www.w3.org/1999/xlink" xml:space="preserve" xmlns:serif="http://www.serif.com/" style="fill-rule:evenodd;clip-rule:evenodd;stroke-linejoin:round;stroke-miterlimit:2;"><g><path d="M0,44.339l226.28,0c145.851,0 254.217,18.077 325.1,54.231c70.883,36.153 129.27,94.931 175.162,176.334c45.892,81.402 68.838,176.448 68.838,285.136c0,77.31 -12.837,148.366 -38.51,213.17c-25.672,64.804 -61.114,118.579 -106.323,161.327c-45.21,42.748 -94.168,72.307 -146.874,88.679c-52.707,16.371 -144.034,24.557 -273.982,24.557l-229.691,0l0,-1003.43Zm189.636,184.179l0,633.029l88.679,0c87.314,0 150.64,-10.015 189.977,-30.046c39.337,-20.031 71.511,-53.719 96.523,-101.064c25.012,-47.345 37.518,-105.618 37.518,-174.82c0,-106.528 -29.787,-189.157 -89.361,-247.885c-53.662,-52.809 -139.839,-79.214 -258.532,-79.214l-64.804,0Z" style="fill:#5400f7;fill-rule:nonzero;"/><path d="M1685.46,556.536l-538.995,259.566c30.673,43.78 69.669,71.563 116.987,83.351c47.319,11.788 97.201,5.054 149.646,-20.202c62.688,-30.189 106.011,-78.057 129.968,-143.602l173.321,-1.697c-11.165,66.955 -35.559,124.256 -73.183,171.903c-37.625,47.647 -90.239,87.749 -157.844,120.305c-104.89,50.513 -206.251,58.567 -304.084,24.164c-97.832,-34.403 -170.722,-101.387 -218.669,-200.95c-49.131,-102.022 -57.045,-202.568 -23.742,-301.637c33.303,-99.069 99.531,-172.478 198.685,-220.228c105.3,-50.71 207.162,-58.249 305.586,-22.616c98.424,35.632 174.274,108.762 227.549,219.388l14.775,32.255Zm-231.416,-51.337c-29.038,-31.949 -65.494,-51.744 -109.368,-59.385c-43.875,-7.642 -87.361,-1.086 -130.46,19.669c-46.785,22.531 -81.511,55.406 -104.177,98.626c-14.271,27.062 -20.882,65.83 -19.833,116.305l363.838,-175.215Z" style="fill:#5400f7;fill-rule:nonzero;"/><path d="M1854.77,500l109.78,-187.5l184.54,431.037l187.088,-437.937l188.773,0l-315.833,742.173l-120.739,0l-233.609,-547.773Z" style="fill:#5400f7;fill-rule:nonzero;"/><path d="M3180.84,180.768l-141.459,124.832c-49.662,-69.124 -100.233,-103.685 -151.714,-103.685c-25.054,0 -45.554,6.707 -61.499,20.123c-15.945,13.415 -23.918,28.536 -23.918,45.362c0,16.827 5.696,32.743 17.086,47.75c15.49,20.01 62.182,62.985 140.074,128.926c72.89,60.938 117.08,99.365 132.57,115.282c38.719,39.109 66.165,76.514 82.337,112.212c16.173,35.699 24.259,74.695 24.259,116.988c0,82.312 -28.453,150.299 -85.359,203.961c-56.905,53.662 -131.112,80.493 -222.618,80.493c-71.476,0 -133.733,-17.508 -186.769,-52.525c-53.037,-35.017 -98.449,-90.043 -136.237,-165.079l160.549,-96.864c48.283,88.678 103.849,133.018 166.699,133.018c32.792,0 60.348,-9.55 82.667,-28.65c22.319,-19.1 33.478,-41.156 33.478,-66.168c0,-22.738 -8.427,-45.476 -25.282,-68.215c-16.854,-22.738 -53.981,-57.527 -111.381,-104.368c-109.335,-89.133 -179.946,-157.916 -211.832,-206.348c-31.887,-48.432 -47.83,-96.751 -47.83,-144.956c0,-69.578 26.522,-129.266 79.565,-179.062c53.044,-49.797 118.495,-74.695 196.351,-74.695c50.088,0 97.783,11.596 143.085,34.789c45.302,23.193 94.362,65.486 147.178,126.879Z" style="fill:#5400f7;fill-rule:nonzero;"/><path d="M3359.56,500l188.271,-194.4l0,357.444c0,69.578 4.788,117.897 14.363,144.955c9.575,27.059 24.96,48.091 46.156,63.099c21.197,15.007 47.296,22.51 78.298,22.51c31.002,0 57.33,-7.39 78.984,-22.169c21.655,-14.78 37.723,-36.495 48.203,-65.145c7.753,-21.374 11.629,-67.078 11.629,-137.111l0,-363.583l186.225,0l0,314.469c0,129.607 -10.232,218.286 -30.696,266.036c-25.012,58.209 -61.848,102.89 -110.508,134.041c-48.659,31.151 -110.507,46.727 -185.543,46.727c-81.402,0 -147.229,-18.191 -197.48,-54.572c-50.252,-36.381 -85.609,-87.087 -106.074,-152.118c-14.552,-45.021 -21.828,-126.879 -21.828,-245.572l0,-114.611Z" style="fill:#5400f7;fill-rule:nonzero;"/><path d="M4271.24,0c32.65,0 60.652,11.824 84.005,35.471c23.352,23.648 35.029,52.298 35.029,85.951c0,33.197 -11.563,61.506 -34.688,84.926c-23.126,23.421 -50.786,35.131 -82.982,35.131c-33.105,0 -61.334,-11.938 -84.687,-35.813c-23.353,-23.875 -35.029,-52.866 -35.029,-86.973c0,-32.743 11.563,-60.711 34.688,-83.904c23.125,-23.193 51.013,-34.789 83.664,-34.789Zm-93.113,305.6l186.225,0l0,742.173l-186.225,0l0,-742.173Z" style="fill:#5400f7;fill-rule:nonzero;"/><path d="M4556.04,166.667l186.225,0l0,138.933l109.475,0l1.032,160.304l-110.507,0l0,581.869l-186.225,0l0,-581.869l-95.5,0l0,-160.304l95.5,0l0,-138.933Z" style="fill:#5400f7;fill-rule:nonzero;"/><path d="M5680.81,556.629l-539.06,259.432c30.662,43.787 69.651,71.58 116.967,83.38c47.315,11.8 97.198,5.078 149.65,-20.165c62.696,-30.174 106.03,-78.03 130.004,-143.569l173.321,-1.655c-11.181,66.953 -35.589,124.248 -73.226,171.886c-37.636,47.637 -90.261,87.726 -157.874,120.266c-104.902,50.486 -206.265,58.515 -304.089,24.087c-97.824,-34.427 -170.697,-101.429 -218.619,-201.004c-49.106,-102.035 -56.995,-202.582 -23.667,-301.643c33.327,-99.06 99.574,-172.453 198.74,-220.179c105.312,-50.683 207.176,-58.196 305.591,-22.539c98.416,35.657 174.247,108.805 227.494,219.445l14.768,32.258Zm-231.404,-51.395c-29.029,-31.955 -65.481,-51.759 -109.353,-59.412c-43.873,-7.653 -87.361,-1.107 -130.464,19.637c-46.792,22.519 -81.526,55.386 -104.202,98.599c-14.278,27.059 -20.899,65.826 -19.862,116.3l363.881,-175.124Z" style="fill:#5400f7;fill-rule:nonzero;"/></g></svg>